<svg width="1440" height="920" viewBox="0 0 1440 920" fill="none" xmlns="http://www.w3.org/2000/svg">
  <!-- Main white background -->
  <rect width="1440" height="920" rx="28" fill="#ffffff"/>
  
  <!-- Top Header Legend Bar -->
  <rect x="0" y="0" width="1440" height="70" rx="28" fill="#ffffff"/>
  <rect x="24" y="23" width="24" height="24" rx="12" fill="#F59E0B"/>
  <text x="58" y="40" fill="#1E293B" font-family="'Manrope', 'Segoe UI', system-ui, sans-serif" font-size="14" font-weight="600">Cook</text>
  
  <rect x="170" y="23" width="24" height="24" rx="12" fill="#60A5FA"/>
  <text x="204" y="40" fill="#1E293B" font-family="'Manrope', 'Segoe UI', system-ui, sans-serif" font-size="14" font-weight="600">Waiter</text>
  
  <rect x="360" y="23" width="24" height="24" rx="12" fill="#A78BFA"/>
  <text x="394" y="40" fill="#1E293B" font-family="'Manrope', 'Segoe UI', system-ui, sans-serif" font-size="14" font-weight="600">Bartender</text>
  
  <rect x="610" y="23" width="24" height="24" rx="12" fill="#4ADE80"/>
  <text x="644" y="40" fill="#1E293B" font-family="'Manrope', 'Segoe UI', system-ui, sans-serif" font-size="14" font-weight="600">Manager</text>
  
  <line x1="0" y1="70" x2="1440" y2="70" stroke="#E5EDF7" stroke-width="1"/>
  
  <!-- Left Main Navigation Sidebar Background -->
  <rect x="0" y="70" width="176" height="630" fill="#FCFDFE"/>
  <line x1="176" y1="70" x2="176" y2="700" stroke="#E5EDF7" stroke-width="1"/>
  
  <!-- Brand Logo & Menu Items -->
  <text x="28" y="124" fill="#1D4ED8" font-family="'Space Grotesk', 'Manrope', 'Segoe UI', system-ui, sans-serif" font-size="24" font-weight="800">GastrOWO</text>
  
  <rect x="24" y="156" width="128" height="32" rx="10" fill="#EDF4FF"/>
  <text x="42" y="177" fill="#2563EB" font-family="'Manrope', 'Segoe UI', system-ui, sans-serif" font-size="14" font-weight="700">Grafik</text>
  
  <g fill="#64748B" font-family="'Manrope', 'Segoe UI', system-ui, sans-serif" font-size="14" font-weight="600">
    <text x="42" y="226">Przegląd</text>
    <text x="42" y="262">Zadania</text>
    <text x="42" y="298">Zespół</text>
    <text x="42" y="334">Raporty</text>
    <text x="42" y="370">Notatki</text>
    <text x="42" y="406">Ustawienia</text>
  </g>
  
  <!-- Sidebar Profile Card -->
  <rect x="24" y="500" width="128" height="104" rx="18" fill="#ffffff" stroke="#E5EDF7"/>
  <text x="32" y="526" fill="#64748B" font-family="'Manrope', 'Segoe UI', system-ui, sans-serif" font-size="10" font-weight="700" letter-spacing="1.2">BIURO WROCŁAW</text>
  <circle cx="56" cy="566" r="20" fill="url(#grad-avatar)"/>
  <text x="56" y="572" fill="#ffffff" font-family="'Manrope', 'Segoe UI', system-ui, sans-serif" font-size="14" font-weight="800" text-anchor="middle">JK</text>
  <text x="86" y="560" fill="#0F172A" font-family="'Manrope', 'Segoe UI', system-ui, sans-serif" font-size="13" font-weight="700">Jan K.</text>
  <text x="86" y="578" fill="#64748B" font-family="'Manrope', 'Segoe UI', system-ui, sans-serif" font-size="11" font-weight="500">Właściciel</text>
  
  <!-- Right Page Header -->
  <text x="212" y="120" fill="#0F172A" font-family="'Space Grotesk', 'Manrope', 'Segoe UI', system-ui, sans-serif" font-size="28" font-weight="800">Grafik tygodniowy</text>
  <text x="212" y="152" fill="#64748B" font-family="'Manrope', 'Segoe UI', system-ui, sans-serif" font-size="14" font-weight="500">20 – 26 maja 2034</text>
  
  <rect x="995" y="104" width="84" height="34" rx="17" fill="#ffffff" stroke="#DCE6F2"/>
  <text x="1037" y="126" fill="#64748B" font-family="'Manrope', 'Segoe UI', system-ui, sans-serif" font-size="13" font-weight="600" text-anchor="middle">Dzisiaj</text>
  
  <rect x="1102" y="104" width="34" height="34" rx="17" fill="#ffffff" stroke="#DCE6F2"/>
  <text x="1119" y="127" fill="#64748B" font-family="'Manrope', 'Segoe UI', system-ui, sans-serif" font-size="16" font-weight="700" text-anchor="middle">&lt;</text>
  
  <rect x="1148" y="104" width="34" height="34" rx="17" fill="#ffffff" stroke="#DCE6F2"/>
  <text x="1165" y="127" fill="#64748B" font-family="'Manrope', 'Segoe UI', system-ui, sans-serif" font-size="16" font-weight="700" text-anchor="middle">&gt;</text>
  
  <rect x="1200" y="100" width="160" height="40" rx="12" fill="#22C55E"/>
  <text x="1280" y="125" fill="#ffffff" font-family="'Manrope', 'Segoe UI', system-ui, sans-serif" font-size="14" font-weight="700" text-anchor="middle">Publikuj grafik</text>
  
  <line x1="176" y1="176" x2="1440" y2="176" stroke="#E5EDF7" stroke-width="1"/>
  
  <!-- Right Content Area Layout Grid -->
  <!-- Top Headers Row (PON-ND) Background -->
  <rect x="176" y="177" width="1264" height="44" fill="#FAFCFF"/>
  <rect x="176" y="177" width="52" height="479" fill="#FCFDFE"/>
  <line x1="228" y1="177" x2="228" y2="656" stroke="#E5EDF7" stroke-width="1"/>
  
  <!-- Day Titles Headers (Perfectly Centered Columns: Width 166, start at 228) -->
  <g fill="#64748B" font-family="'Manrope', 'Segoe UI', system-ui, sans-serif" font-size="11" font-weight="700" text-anchor="middle">
    <text x="311" y="198">PON</text><text x="311" y="214" fill="#0F172A" font-size="14" font-weight="800">20</text>
    <text x="477" y="198">WT</text><text x="477" y="214" fill="#0F172A" font-size="14" font-weight="800">21</text>
    <text x="643" y="198">ŚR</text><text x="643" y="214" fill="#0F172A" font-size="14" font-weight="800">22</text>
    <text x="809" y="198">CZW</text><text x="809" y="214" fill="#0F172A" font-size="14" font-weight="800">23</text>
    <text x="975" y="198">PT</text><text x="975" y="214" fill="#0F172A" font-size="14" font-weight="800">24</text>
    <text x="1141" y="198">SOB</text><text x="1141" y="214" fill="#0F172A" font-size="14" font-weight="800">25</text>
    <text x="1307" y="198">ND</text><text x="1307" y="214" fill="#0F172A" font-size="14" font-weight="800">26</text>
  </g>
  
  <!-- Grid Sidebar Hours (Centered in Hours sidebar, y offset centered in rows of 42px height) -->
  <g fill="#64748B" font-family="'Manrope', 'Segoe UI', system-ui, sans-serif" font-size="10" font-weight="600" text-anchor="middle">
    <text x="202" y="244">09:00</text>
    <text x="202" y="286">10:00</text>
    <text x="202" y="328">11:00</text>
    <text x="202" y="370">12:00</text>
    <text x="202" y="412">13:00</text>
    <text x="202" y="454">14:00</text>
    <text x="202" y="496">15:00</text>
    <text x="202" y="538">16:00</text>
    <text x="202" y="580">17:00</text>
    <text x="202" y="622">18:00</text>
  </g>
  
  <!-- Board Grid Lines -->
  <g stroke="#E5EDF7" stroke-width="1">
    <!-- Horizontal Grid Lines (Row height 42) -->
    <line x1="228" y1="221" x2="1440" y2="221"/>
    <line x1="228" y1="263" x2="1440" y2="263"/>
    <line x1="228" y1="305" x2="1440" y2="305"/>
    <line x1="228" y1="347" x2="1440" y2="347"/>
    <line x1="228" y1="389" x2="1440" y2="389"/>
    <line x1="228" y1="431" x2="1440" y2="431"/>
    <line x1="228" y1="473" x2="1440" y2="473"/>
    <line x1="228" y1="515" x2="1440" y2="515"/>
    <line x1="228" y1="557" x2="1440" y2="557"/>
    <line x1="228" y1="599" x2="1440" y2="599"/>
    <line x1="228" y1="641" x2="1440" y2="641"/>
    
    <!-- Vertical Grid Lines (Column width 166) -->
    <line x1="394" y1="177" x2="394" y2="656"/>
    <line x1="560" y1="177" x2="560" y2="656"/>
    <line x1="726" y1="177" x2="726" y2="656"/>
    <line x1="892" y1="177" x2="892" y2="656"/>
    <line x1="1058" y1="177" x2="1058" y2="656"/>
    <line x1="1224" y1="177" x2="1224" y2="656"/>
    <line x1="1390" y1="177" x2="1390" y2="656"/>
  </g>
  
  <!-- Assignments (capsules mathematically aligned and symmetric within columns) -->
  <g font-family="'Manrope', 'Segoe UI', system-ui, sans-serif" font-size="10" font-weight="700" text-anchor="middle">
    <!-- PON: Marta & Daniel -->
    <rect x="236" y="225" width="72" height="196" rx="14" fill="#DBF5E7" stroke="#7AD7AB"/>
    <text x="272" y="245" fill="#166534">Marta</text>
    
    <rect x="314" y="225" width="72" height="196" rx="14" fill="#DBF5E7" stroke="#7AD7AB"/>
    <text x="350" y="245" fill="#166534">Daniel</text>
    
    <!-- WT: Sara B., Lena K., Michał, Ewa -->
    <rect x="402" y="309" width="72" height="196" rx="14" fill="#DBEAFE" stroke="#9BBFFC"/>
    <text x="438" y="329" fill="#1D4ED8">Sara B.</text>
    
    <rect x="480" y="309" width="72" height="196" rx="14" fill="#DBEAFE" stroke="#9BBFFC"/>
    <text x="516" y="329" fill="#1D4ED8">Lena K.</text>
    
    <rect x="402" y="477" width="72" height="154" rx="14" fill="#FEF3C7" stroke="#FDC86B"/>
    <text x="438" y="497" fill="#B45309">Michał</text>
    
    <rect x="480" y="477" width="72" height="154" rx="14" fill="#FEF3C7" stroke="#FDC86B"/>
    <text x="516" y="497" fill="#B45309">Ewa</text>
    
    <!-- ŚR: Igor P. & Julia -->
    <rect x="568" y="309" width="72" height="196" rx="14" fill="#DBEAFE" stroke="#9BBFFC"/>
    <text x="604" y="329" fill="#1D4ED8">Igor P.</text>
    
    <rect x="568" y="477" width="72" height="154" rx="14" fill="#FEF3C7" stroke="#FDC86B"/>
    <text x="604" y="497" fill="#B45309">Julia</text>
    
    <!-- CZW: Marta & Dawid -->
    <rect x="734" y="225" width="72" height="280" rx="14" fill="#DBF5E7" stroke="#7AD7AB"/>
    <text x="770" y="245" fill="#166534">Marta</text>
    
    <rect x="812" y="225" width="72" height="280" rx="14" fill="#DBF5E7" stroke="#7AD7AB"/>
    <text x="848" y="245" fill="#166534">Dawid</text>
    
    <!-- PT: Anna -->
    <rect x="900" y="225" width="72" height="280" rx="14" fill="#DBF5E7" stroke="#7AD7AB"/>
    <text x="936" y="245" fill="#166534">Anna</text>
    
    <!-- SOB: Sara W. & Lena R. -->
    <rect x="1066" y="225" width="72" height="280" rx="14" fill="#DBEAFE" stroke="#9BBFFC"/>
    <text x="1102" y="245" fill="#1D4ED8">Sara W.</text>
    
    <rect x="1144" y="225" width="72" height="280" rx="14" fill="#DBEAFE" stroke="#9BBFFC"/>
    <text x="1180" y="245" fill="#1D4ED8">Lena R.</text>
    
    <!-- ND: Ania & Karolina -->
    <rect x="1232" y="225" width="72" height="280" rx="14" fill="#DBEAFE" stroke="#9BBFFC"/>
    <text x="1268" y="245" fill="#1D4ED8">Ania</text>
    
    <rect x="1310" y="477" width="72" height="154" rx="14" fill="#EEE5FF" stroke="#C8B5FF"/>
    <text x="1346" y="497" fill="#7C3AED">Karolina</text>
  </g>
  
  <!-- Bottom Metrics Panel Area -->
  <rect x="176" y="699" width="1264" height="221" fill="#F8FBFF"/>
  <line x1="176" y1="699" x2="1440" y2="699" stroke="#E5EDF7" stroke-width="1"/>
  
  <!-- Metrics Cards (Mathematically Spaced and Aligned: Width 268, starting at 206, gap 30) -->
  <!-- Card 0: Przychód Dzisiaj -->
  <rect x="206" y="731" width="268" height="146" rx="22" fill="#ffffff" stroke="#DFE7F3"/>
  <text x="236" y="764" fill="#64748B" font-family="'Manrope', 'Segoe UI', system-ui, sans-serif" font-size="11" font-weight="700" letter-spacing="1.4">PRZYCHÓD DZISIAJ</text>
  <text x="236" y="818" fill="#0F172A" font-family="'Space Grotesk', 'Manrope', 'Segoe UI', system-ui, sans-serif" font-size="32" font-weight="800">12 450 PLN</text>
  <text x="236" y="854" fill="#64748B" font-family="'Manrope', 'Segoe UI', system-ui, sans-serif" font-size="14" font-weight="500">vs wczoraj +10%</text>
  
  <!-- Card 1: Koszt Pracy -->
  <rect x="504" y="731" width="268" height="146" rx="22" fill="#ffffff" stroke="#DFE7F3"/>
  <text x="534" y="764" fill="#64748B" font-family="'Manrope', 'Segoe UI', system-ui, sans-serif" font-size="11" font-weight="700" letter-spacing="1.4">KOSZT PRACY</text>
  <text x="534" y="818" fill="#0F172A" font-family="'Space Grotesk', 'Manrope', 'Segoe UI', system-ui, sans-serif" font-size="32" font-weight="800">28,6%</text>
  <text x="534" y="854" fill="#64748B" font-family="'Manrope', 'Segoe UI', system-ui, sans-serif" font-size="14" font-weight="500">3 560 PLN</text>
  
  <!-- Card 2: Średnia Przychód na H -->
  <rect x="802" y="731" width="268" height="146" rx="22" fill="#ffffff" stroke="#DFE7F3"/>
  <text x="832" y="764" fill="#64748B" font-family="'Manrope', 'Segoe UI', system-ui, sans-serif" font-size="11" font-weight="700" letter-spacing="1.4">ŚR. PRZYCHÓD NA H</text>
  <text x="832" y="818" fill="#0F172A" font-family="'Space Grotesk', 'Manrope', 'Segoe UI', system-ui, sans-serif" font-size="32" font-weight="800">156 PLN</text>
  <text x="832" y="854" fill="#64748B" font-family="'Manrope', 'Segoe UI', system-ui, sans-serif" font-size="14" font-weight="500">80,0 h</text>
  
  <!-- Card 3: Prośby o zmiany -->
  <rect x="1100" y="731" width="268" height="146" rx="22" fill="#ffffff" stroke="#DFE7F3"/>
  <text x="1130" y="764" fill="#64748B" font-family="'Manrope', 'Segoe UI', system-ui, sans-serif" font-size="11" font-weight="700" letter-spacing="1.4">PROŚBY O ZMIANY</text>
  <text x="1130" y="818" fill="#0F172A" font-family="'Space Grotesk', 'Manrope', 'Segoe UI', system-ui, sans-serif" font-size="32" font-weight="800">5</text>
  <text x="1130" y="854" fill="#64748B" font-family="'Manrope', 'Segoe UI', system-ui, sans-serif" font-size="14" font-weight="500">Do akceptacji</text>
  
  <defs>
    <linearGradient id="grad-avatar" x1="34" y1="538" x2="90" y2="594" gradientUnits="userSpaceOnUse">
      <stop stop-color="#2563EB"/>
      <stop offset="1" stop-color="#4ADE80"/>
    </linearGradient>
  </defs>
</svg>
